<svg width="22" height="24" viewBox="0 0 22 24" fill="none" xmlns="http://www.w3.org/2000/svg">
<g clip-path="url(#clip0_9_78)">
<path d="M18.617 4.60999C18.1608 4.099 17.619 3.69364 17.0228 3.41708C16.4265 3.14052 15.7874 2.99817 15.142 2.99817C14.4965 2.99817 13.8574 3.14052 13.2612 3.41708C12.6649 3.69364 12.1232 4.099 11.6669 4.60999L10.72 5.66999L9.77304 4.60999C8.85139 3.5783 7.60137 2.9987 6.29797 2.9987C4.99457 2.9987 3.74455 3.5783 2.8229 4.60999C1.90126 5.64169 1.38348 7.04096 1.38348 8.49999C1.38348 9.95903 1.90126 11.3583 2.8229 12.39L3.76984 13.45L10.72 21.23L17.6701 13.45L18.617 12.39C19.0735 11.8792 19.4356 11.2728 19.6827 10.6053C19.9298 9.93789 20.0569 9.22248 20.0569 8.49999C20.0569 7.77751 19.9298 7.0621 19.6827 6.39464C19.4356 5.72718 19.0735 5.12075 18.617 4.60999V4.60999Z" stroke="#8E8E8E" stroke-width="2" stroke-linecap="round" stroke-linejoin="round"/>
</g>
<defs>
<clipPath id="clip0_9_78">
<rect width="21.44" height="24" fill="white"/>
</clipPath>
</defs>
</svg>
