<svg width="22" height="24" viewBox="0 0 22 24" fill="none" xmlns="http://www.w3.org/2000/svg">
<path d="M18.76 10C18.76 17 10.72 23 10.72 23C10.72 23 2.67999 17 2.67999 10C2.67999 7.61305 3.52706 5.32387 5.03485 3.63604C6.54265 1.94821 8.58765 1 10.72 1C12.8523 1 14.8973 1.94821 16.4051 3.63604C17.9129 5.32387 18.76 7.61305 18.76 10Z" stroke="#8E8E8E" stroke-width="2" stroke-linecap="round" stroke-linejoin="round"/>
<path d="M10.72 13C12.2001 13 13.4 11.6569 13.4 10C13.4 8.34315 12.2001 7 10.72 7C9.23986 7 8.03998 8.34315 8.03998 10C8.03998 11.6569 9.23986 13 10.72 13Z" stroke="#8E8E8E" stroke-width="2" stroke-linecap="round" stroke-linejoin="round"/>
</svg>
